# xmcd
#
# Track frame offsets:
#	150
#	12050
#	26342
#	37350
#	49861
#	61996
#	72149
#	85389
#	96624
#	109582
#	120548
#	126443
#	135755
#	145701
#	155393
#	167123
#	179650
#	191519
#	204510
#	215222
#	232910
#	242954
#	256641
#	269816
#
# Disc length: 3819 seconds
#
# Revision: 1
# Processed by: cddbd v1.5.2PL0 Copyright (c) Steve Scherf et al.
# Submitted via: audiograbber 1.83.01
#
DISCID=600ee918
DTITLE=The Greatest Country Music Recordings Of All Time - Record 75 and 76
DYEAR=1900
DGENRE=
TTITLE0=Arlie Duff - Y'All Come
TTITLE1=Rex Allen - Crying In The Chapel
TTITLE2=Del Wood - Down Yonder
TTITLE3=Skeets McDonald - Don't Let The Stars Get In Your Eyes
TTITLE4=Hawkshaw Hawkins - Lonesome 7-7203
TTITLE5=Cowboy Copas - Alabam
TTITLE6=Stuart Hamblen - This Ole House
TTITLE7=Mitchell Torok - Caribeean
TTITLE8=Jonnie Lee Wills and His Boys - Rag Mop
TTITLE9=Carlisles - No Help Wanted
TTITLE10=Hank Locklin - Please Help Me I'm Falling
TTITLE11=Harden trio - Tippy Toeing
TTITLE12=Dave Dudley - Six Days On The Road
TTITLE13=Ned Miller - From A Jack To A King
TTITLE14=Ernie Ashworth - Talk Back Trembling Lips
TTITLE15=Walter Brennan - Old Rivers
TTITLE16=Johnny Horton - When It's Springtime In Alaska
TTITLE17=Billy Walker - Cross The Bazos At Waco
TTITLE18=Leroy Van Dyke - Walk On By
TTITLE19=Red Sovine - Giddy Up Go
TTITLE20=George Hamilton IV - Abilene
TTITLE21=Charley Pride - All I Have To Offer You Is Me
TTITLE22=Freddy Weller - Games People Play
TTITLE23=John Wesley Ryles - Kay
EXTD=
EXTT0=
EXTT1=
EXTT2=
EXTT3=
EXTT4=
EXTT5=
EXTT6=
EXTT7=
EXTT8=
EXTT9=
EXTT10=
EXTT11=
EXTT12=
EXTT13=
EXTT14=
EXTT15=
EXTT16=
EXTT17=
EXTT18=
EXTT19=
EXTT20=
EXTT21=
EXTT22=
EXTT23=
PLAYORDER=
